<svg width="33" height="32" viewBox="0 0 33 32" fill="none" xmlns="http://www.w3.org/2000/svg">
<path opacity="0.4" d="M17.3789 4.94757V16.2516C17.3789 16.7745 16.9544 17.1989 16.4315 17.1989C15.9086 17.1989 15.4841 16.7745 15.4841 16.2516V4.94757C15.4841 4.42462 15.9086 4.0002 16.4315 4.0002C16.9544 4.0002 17.3789 4.42462 17.3789 4.94757Z" fill="#7A7A8A"/>
<mask id="mask0_1214_12335" style="mask-type:alpha" maskUnits="userSpaceOnUse" x="9" y="15" width="15" height="13">
<path fill-rule="evenodd" clip-rule="evenodd" d="M9.16699 15.3044H23.6955V27.2237H9.16699V15.3044Z" fill="white"/>
</mask>
<g mask="url(#mask0_1214_12335)">
<path d="M23.6959 16.2518C23.6959 16.4287 23.6466 16.603 23.5506 16.7571L17.2336 26.7815C17.0593 27.0569 16.7574 27.2249 16.4315 27.2249C16.1056 27.2249 15.8037 27.0569 15.6294 26.7815L9.31232 16.7571C9.12916 16.4653 9.1178 16.0964 9.2858 15.7945C9.45253 15.4914 9.76959 15.3044 10.1144 15.3044H22.7485C23.0934 15.3044 23.4104 15.4914 23.5772 15.7945C23.6567 15.9373 23.6959 16.0952 23.6959 16.2518Z" fill="#7A7A8A"/>
</g>
</svg>
