<svg width="21" height="21" viewBox="0 0 21 21" fill="none" xmlns="http://www.w3.org/2000/svg">
<path opacity="0.4" fill-rule="evenodd" clip-rule="evenodd" d="M3.91064 18.5882C3.91064 17.7482 4.59064 17.0682 5.43064 17.0682C6.26064 17.0682 6.94064 17.7482 6.94064 18.5882C6.94064 19.4182 6.26064 20.0982 5.43064 20.0982C4.59064 20.0982 3.91064 19.4182 3.91064 18.5882ZM15.1606 18.5882C15.1606 17.7482 15.8406 17.0682 16.6806 17.0682C17.5106 17.0682 18.1906 17.7482 18.1906 18.5882C18.1906 19.4182 17.5106 20.0982 16.6806 20.0982C15.8406 20.0982 15.1606 19.4182 15.1606 18.5882Z" fill="white"/>
<path fill-rule="evenodd" clip-rule="evenodd" d="M18.1907 4.3487C18.8007 4.3487 19.2007 4.5587 19.6007 5.0187C20.0007 5.4787 20.0707 6.1387 19.9807 6.7377L19.0307 13.2977C18.8507 14.5587 17.7707 15.4877 16.5007 15.4877H5.59074C4.26074 15.4877 3.16074 14.4677 3.05074 13.1487L2.13074 2.2477L0.620742 1.9877C0.220742 1.9177 -0.0592579 1.5277 0.0107421 1.1277C0.0807421 0.717697 0.470742 0.447697 0.880742 0.507697L3.26574 0.867697C3.60574 0.928697 3.85574 1.2077 3.88574 1.5477L4.07574 3.7877C4.10574 4.1087 4.36574 4.3487 4.68574 4.3487H18.1907ZM12.1307 9.5477H14.9007C15.3207 9.5477 15.6507 9.2077 15.6507 8.7977C15.6507 8.3777 15.3207 8.0477 14.9007 8.0477H12.1307C11.7107 8.0477 11.3807 8.3777 11.3807 8.7977C11.3807 9.2077 11.7107 9.5477 12.1307 9.5477Z" fill="white"/>
</svg>
