<svg width="103" height="105" viewBox="0 0 103 105" fill="none" xmlns="http://www.w3.org/2000/svg">
<path fill-rule="evenodd" clip-rule="evenodd" d="M24.4556 14.5285C23.5136 15.7938 21.4874 20.1026 20.5119 22.2926L88.2641 50.7132C89.1445 48.4788 90.8129 43.9802 91.0434 42.4607C92.5591 33.8418 88.5519 26.1875 80.2762 21.8259L46.7218 7.75061C37.7525 4.83395 29.5724 7.33612 24.4556 14.5285ZM8.47399 50.9544L20.499 22.288L88.2773 50.7195L76.1559 79.6157C71.1978 91.4355 60.7093 95.5819 48.8053 90.5884L19.6778 78.37C7.88539 73.4234 3.48268 62.8533 8.47399 50.9544Z" fill="url(#paint0_linear_1206_6331)"/>
<g opacity="0.5" filter="url(#filter0_f_1206_6331)">
<path d="M65.3171 28.0627L46.5252 20.4778C39.7089 17.7265 33.9899 20.4611 30.9907 27.8917L20.8328 53.0581C17.7844 60.6104 20.0421 66.4514 26.8584 69.2026L45.6502 76.7876C52.5764 79.5832 58.144 76.9008 61.1923 69.3484L71.3502 44.182C74.3494 36.7515 72.2432 30.8584 65.3171 28.0627Z" fill="#FFA866"/>
</g>
<g filter="url(#filter1_b_1206_6331)">
<mask id="path-3-outside-1_1206_6331" maskUnits="userSpaceOnUse" x="27.1289" y="26.8453" width="76" height="78" fill="black">
<rect fill="white" x="27.1289" y="26.8453" width="76" height="78"/>
<path fill-rule="evenodd" clip-rule="evenodd" d="M28.7759 42.7087C28.3967 44.2399 28.195 48.997 28.1426 51.3939H101.614C101.562 48.9929 101.36 44.1991 100.985 42.7087C99.0487 34.1745 92.3925 28.6661 83.0739 27.8453H46.687C37.2877 28.6253 30.7123 34.0969 28.7759 42.7087ZM28.1289 51.3947V82.4811C28.1289 95.3844 36.2776 103.429 49.0655 103.429H80.652C93.5609 103.429 101.629 95.5477 101.629 82.7302V51.3947H28.1289ZM44.9104 69.1736C44.9911 71.0478 46.524 72.5219 48.3796 72.4362C50.195 72.3586 51.6472 70.8069 51.5665 68.9245C51.5262 67.0911 50.0336 65.6578 48.2183 65.6578C46.3626 65.7436 44.9104 67.2953 44.9104 69.1736ZM61.4904 69.1736C61.5711 71.0478 63.104 72.5219 64.9597 72.4362C66.775 72.3586 68.2272 70.8069 68.1465 68.9245C68.1062 67.0911 66.6136 65.6578 64.7983 65.6578C62.9426 65.7436 61.4904 67.2953 61.4904 69.1736ZM78.0703 83.992C78.0703 85.8703 79.5629 87.422 81.4185 87.4628C83.3145 87.4628 84.8474 85.9112 84.8474 83.992C84.8474 82.0769 83.3145 80.5253 81.4185 80.5253H81.3782C79.5225 80.5661 78.0299 82.1137 78.0703 83.992ZM64.9597 87.2587C63.104 87.3445 61.5711 85.8704 61.4904 83.9921C61.4904 82.1137 62.9426 80.5662 64.7983 80.4804C66.6136 80.4804 68.1062 81.9137 68.1465 83.7512C68.2272 85.6295 66.775 87.1812 64.9597 87.2587ZM48.3393 87.2587C46.4836 87.3445 44.9507 85.8704 44.87 83.9921C44.87 82.1137 46.3223 80.5662 48.1779 80.4804C49.9932 80.4804 51.4858 81.9137 51.5262 83.7512C51.6068 85.6295 50.1546 87.1812 48.3393 87.2587ZM81.4183 65.7028C79.5626 65.7436 78.1104 67.2544 78.1104 69.1328V69.1736C78.1507 71.0479 79.6837 72.477 81.5393 72.4362C83.3546 72.3994 84.8069 70.8478 84.7665 68.9694C84.6859 67.1687 83.2336 65.7028 81.4183 65.7028Z"/>
</mask>
<path fill-rule="evenodd" clip-rule="evenodd" d="M28.7759 42.7087C28.3967 44.2399 28.195 48.997 28.1426 51.3939H101.614C101.562 48.9929 101.36 44.1991 100.985 42.7087C99.0487 34.1745 92.3925 28.6661 83.0739 27.8453H46.687C37.2877 28.6253 30.7123 34.0969 28.7759 42.7087ZM28.1289 51.3947V82.4811C28.1289 95.3844 36.2776 103.429 49.0655 103.429H80.652C93.5609 103.429 101.629 95.5477 101.629 82.7302V51.3947H28.1289ZM44.9104 69.1736C44.9911 71.0478 46.524 72.5219 48.3796 72.4362C50.195 72.3586 51.6472 70.8069 51.5665 68.9245C51.5262 67.0911 50.0336 65.6578 48.2183 65.6578C46.3626 65.7436 44.9104 67.2953 44.9104 69.1736ZM61.4904 69.1736C61.5711 71.0478 63.104 72.5219 64.9597 72.4362C66.775 72.3586 68.2272 70.8069 68.1465 68.9245C68.1062 67.0911 66.6136 65.6578 64.7983 65.6578C62.9426 65.7436 61.4904 67.2953 61.4904 69.1736ZM78.0703 83.992C78.0703 85.8703 79.5629 87.422 81.4185 87.4628C83.3145 87.4628 84.8474 85.9112 84.8474 83.992C84.8474 82.0769 83.3145 80.5253 81.4185 80.5253H81.3782C79.5225 80.5661 78.0299 82.1137 78.0703 83.992ZM64.9597 87.2587C63.104 87.3445 61.5711 85.8704 61.4904 83.9921C61.4904 82.1137 62.9426 80.5662 64.7983 80.4804C66.6136 80.4804 68.1062 81.9137 68.1465 83.7512C68.2272 85.6295 66.775 87.1812 64.9597 87.2587ZM48.3393 87.2587C46.4836 87.3445 44.9507 85.8704 44.87 83.9921C44.87 82.1137 46.3223 80.5662 48.1779 80.4804C49.9932 80.4804 51.4858 81.9137 51.5262 83.7512C51.6068 85.6295 50.1546 87.1812 48.3393 87.2587ZM81.4183 65.7028C79.5626 65.7436 78.1104 67.2544 78.1104 69.1328V69.1736C78.1507 71.0479 79.6837 72.477 81.5393 72.4362C83.3546 72.3994 84.8069 70.8478 84.7665 68.9694C84.6859 67.1687 83.2336 65.7028 81.4183 65.7028Z" fill="#FFA866" fill-opacity="0.35"/>
<path d="M28.1426 51.3939L27.1428 51.372C27.1369 51.641 27.2397 51.901 27.4278 52.0933C27.6159 52.2855 27.8736 52.3939 28.1426 52.3939V51.3939ZM28.7759 42.7087L29.7466 42.949C29.7483 42.9421 29.75 42.9351 29.7516 42.928L28.7759 42.7087ZM101.614 51.3939V52.3939C101.883 52.3939 102.141 52.2855 102.329 52.0933C102.517 51.901 102.62 51.641 102.614 51.3721L101.614 51.3939ZM100.985 42.7087L100.01 42.9299C100.012 42.9376 100.013 42.9452 100.015 42.9528L100.985 42.7087ZM83.0739 27.8453L83.1617 26.8492C83.1325 26.8466 83.1032 26.8453 83.0739 26.8453V27.8453ZM46.687 27.8453V26.8453C46.6594 26.8453 46.6318 26.8465 46.6043 26.8488L46.687 27.8453ZM28.1289 51.3947V50.3947C27.5766 50.3947 27.1289 50.8424 27.1289 51.3947H28.1289ZM101.629 51.3947H102.629C102.629 50.8424 102.181 50.3947 101.629 50.3947V51.3947ZM48.3796 72.4362L48.3369 71.4371L48.3335 71.4372L48.3796 72.4362ZM44.9104 69.1736H43.9104C43.9104 69.1879 43.9107 69.2023 43.9113 69.2166L44.9104 69.1736ZM51.5665 68.9245L50.5668 68.9465C50.5669 68.9534 50.5671 68.9604 50.5674 68.9673L51.5665 68.9245ZM48.2183 65.6578V64.6578C48.2029 64.6578 48.1875 64.6582 48.1721 64.6589L48.2183 65.6578ZM64.9597 72.4362L64.917 71.4371L64.9135 71.4372L64.9597 72.4362ZM61.4904 69.1736H60.4904C60.4904 69.1879 60.4907 69.2023 60.4913 69.2166L61.4904 69.1736ZM68.1465 68.9245L67.1468 68.9465C67.1469 68.9534 67.1472 68.9604 67.1475 68.9673L68.1465 68.9245ZM64.7983 65.6578V64.6578C64.7829 64.6578 64.7675 64.6582 64.7521 64.6589L64.7983 65.6578ZM81.4185 87.4628L81.3965 88.4626C81.4038 88.4627 81.4112 88.4628 81.4185 88.4628V87.4628ZM78.0703 83.992H79.0703C79.0703 83.9848 79.0702 83.9777 79.07 83.9705L78.0703 83.992ZM81.3782 80.5253V79.5253C81.3708 79.5253 81.3635 79.5253 81.3562 79.5255L81.3782 80.5253ZM61.4904 83.9921H60.4904C60.4904 84.0064 60.4907 84.0207 60.4913 84.035L61.4904 83.9921ZM64.9597 87.2587L64.917 86.2597L64.9135 86.2598L64.9597 87.2587ZM64.7983 80.4804V79.4804C64.7829 79.4804 64.7675 79.4808 64.7521 79.4815L64.7983 80.4804ZM68.1465 83.7512L67.1468 83.7731C67.1469 83.7801 67.1472 83.7871 67.1475 83.7941L68.1465 83.7512ZM44.87 83.9921H43.87C43.87 84.0064 43.8703 84.0207 43.8709 84.035L44.87 83.9921ZM48.3393 87.2587L48.2966 86.2597L48.2931 86.2598L48.3393 87.2587ZM48.1779 80.4804V79.4804C48.1625 79.4804 48.1471 79.4808 48.1318 79.4815L48.1779 80.4804ZM51.5262 83.7512L50.5264 83.7731C50.5266 83.7801 50.5268 83.7871 50.5271 83.7941L51.5262 83.7512ZM81.4183 65.7028V64.7028C81.411 64.7028 81.4036 64.7028 81.3963 64.703L81.4183 65.7028ZM78.1104 69.1736H77.1104C77.1104 69.1808 77.1105 69.188 77.1106 69.1951L78.1104 69.1736ZM81.5393 72.4362L81.5191 71.4364L81.5173 71.4364L81.5393 72.4362ZM84.7665 68.9694L85.7663 68.948C85.7661 68.9402 85.7659 68.9324 85.7655 68.9247L84.7665 68.9694ZM29.1423 51.4158C29.1683 50.2278 29.2314 48.453 29.3348 46.7887C29.4405 45.087 29.5829 43.6102 29.7466 42.949L27.8052 42.4683C27.5898 43.3384 27.4417 45.0058 27.3386 46.6647C27.2333 48.3609 27.1693 50.1631 27.1428 51.372L29.1423 51.4158ZM101.614 50.3939H28.1426V52.3939H101.614V50.3939ZM100.015 42.9528C100.176 43.5905 100.317 45.0625 100.423 46.7714C100.525 48.4404 100.589 50.2256 100.615 51.4158L102.614 51.3721C102.588 50.1612 102.524 48.349 102.419 46.6483C102.316 44.9874 102.169 43.3173 101.955 42.4646L100.015 42.9528ZM82.9862 28.8415C91.9146 29.6279 98.1787 34.8597 100.01 42.9299L101.96 42.4874C99.9187 33.4894 92.8704 27.7043 83.1617 26.8492L82.9862 28.8415ZM46.687 28.8453H83.0739V26.8453H46.687V28.8453ZM29.7516 42.928C31.5838 34.7794 37.7671 29.5889 46.7697 28.8419L46.6043 26.8488C36.8083 27.6616 29.8407 33.4144 27.8003 42.4893L29.7516 42.928ZM29.1289 82.4811V51.3947H27.1289V82.4811H29.1289ZM49.0655 102.429C42.8838 102.429 37.9218 100.488 34.5077 97.0853C31.0942 93.6827 29.1289 88.7189 29.1289 82.4811H27.1289C27.1289 89.1465 29.238 94.6565 33.0958 98.5018C36.953 102.347 42.4593 104.429 49.0655 104.429V102.429ZM80.652 102.429H49.0655V104.429H80.652V102.429ZM100.629 82.7302C100.629 88.9255 98.6838 93.8239 95.2799 97.1732C91.874 100.524 86.9021 102.429 80.652 102.429V104.429C87.3107 104.429 92.8273 102.392 96.6826 98.5988C100.54 94.8032 102.629 89.3524 102.629 82.7302H100.629ZM100.629 51.3947V82.7302H102.629V51.3947H100.629ZM28.1289 52.3947H101.629V50.3947H28.1289V52.3947ZM48.3335 71.4372C47.0632 71.4959 45.9677 70.4848 45.9095 69.1306L43.9113 69.2166C44.0144 71.6109 45.9848 73.5479 48.4258 73.4351L48.3335 71.4372ZM50.5674 68.9673C50.6245 70.2997 49.5987 71.3832 48.3369 71.4371L48.4223 73.4353C50.7912 73.334 52.6699 71.3142 52.5656 68.8817L50.5674 68.9673ZM48.2183 66.6578C49.4969 66.6578 50.5385 67.6637 50.5668 68.9465L52.5663 68.9025C52.5138 66.5185 50.5703 64.6578 48.2183 64.6578V66.6578ZM45.9104 69.1736C45.9104 67.8145 46.9575 66.7172 48.2644 66.6568L48.1721 64.6589C45.7677 64.77 43.9104 66.776 43.9104 69.1736H45.9104ZM64.9135 71.4372C63.6432 71.4959 62.5478 70.4848 62.4895 69.1306L60.4913 69.2166C60.5944 71.6109 62.5648 73.5479 65.0058 73.4351L64.9135 71.4372ZM67.1475 68.9673C67.2046 70.2997 66.1787 71.3832 64.917 71.4371L65.0024 73.4353C67.3712 73.334 69.2499 71.3142 69.1456 68.8817L67.1475 68.9673ZM64.7983 66.6578C66.077 66.6578 67.1186 67.6637 67.1468 68.9465L69.1463 68.9025C69.0939 66.5185 67.1503 64.6578 64.7983 64.6578V66.6578ZM62.4904 69.1736C62.4904 67.8145 63.5376 66.7172 64.8445 66.6568L64.7521 64.6589C62.3477 64.77 60.4904 66.776 60.4904 69.1736H62.4904ZM81.4405 86.4631C80.1422 86.4345 79.0703 85.3405 79.0703 83.992H77.0703C77.0703 86.4002 78.9835 88.4095 81.3965 88.4626L81.4405 86.4631ZM83.8474 83.992C83.8474 85.3704 82.7508 86.4628 81.4185 86.4628V88.4628C83.8782 88.4628 85.8474 86.452 85.8474 83.992H83.8474ZM81.4185 81.5253C82.7516 81.5253 83.8474 82.6185 83.8474 83.992H85.8474C85.8474 81.5354 83.8774 79.5253 81.4185 79.5253V81.5253ZM81.3782 81.5253H81.4185V79.5253H81.3782V81.5253ZM79.07 83.9705C79.0415 82.6441 80.0965 81.5537 81.4002 81.525L81.3562 79.5255C78.9485 79.5785 77.0183 81.5833 77.0705 84.0135L79.07 83.9705ZM60.4913 84.035C60.5943 86.4326 62.5641 88.3705 65.0058 88.2577L64.9135 86.2598C63.644 86.3185 62.5479 85.3082 62.4895 83.9492L60.4913 84.035ZM64.7521 79.4815C62.3492 79.5925 60.4904 81.593 60.4904 83.9921H62.4904C62.4904 82.6345 63.5361 81.5398 64.8445 81.4793L64.7521 79.4815ZM69.1463 83.7292C69.0939 81.3419 67.1511 79.4804 64.7983 79.4804V81.4804C66.0762 81.4804 67.1185 82.4855 67.1468 83.7731L69.1463 83.7292ZM65.0024 88.2578C67.3704 88.1566 69.25 86.1376 69.1456 83.7082L67.1475 83.7941C67.2045 85.1214 66.1795 86.2057 64.917 86.2597L65.0024 88.2578ZM43.8709 84.035C43.9739 86.4326 45.9437 88.3705 48.3854 88.2577L48.2931 86.2598C47.0236 86.3185 45.9275 85.3082 45.8691 83.9492L43.8709 84.035ZM48.1318 79.4815C45.7288 79.5925 43.87 81.593 43.87 83.9921H45.87C45.87 82.6345 46.9157 81.5398 48.2241 81.4793L48.1318 79.4815ZM52.5259 83.7292C52.4735 81.3419 50.5307 79.4804 48.1779 79.4804V81.4804C49.4558 81.4804 50.4981 82.4855 50.5264 83.7731L52.5259 83.7292ZM48.382 88.2578C50.75 88.1566 52.6296 86.1376 52.5252 83.7082L50.5271 83.7941C50.5841 85.1214 49.5591 86.2057 48.2966 86.2597L48.382 88.2578ZM79.1104 69.1328C79.1104 67.7839 80.1424 66.7311 81.4403 66.7025L81.3963 64.703C78.9829 64.7561 77.1104 66.725 77.1104 69.1328H79.1104ZM79.1104 69.1736V69.1328H77.1104V69.1736H79.1104ZM81.5173 71.4364C80.2022 71.4654 79.1384 70.4623 79.1102 69.1521L77.1106 69.1951C77.1631 71.6334 79.1651 73.4887 81.5613 73.4359L81.5173 71.4364ZM83.7668 68.9909C83.7958 70.3433 82.7554 71.4114 81.5191 71.4364L81.5596 73.436C83.9539 73.3875 85.8179 71.3522 85.7663 68.948L83.7668 68.9909ZM81.4183 66.7028C82.6708 66.7028 83.7095 67.7194 83.7675 69.0142L85.7655 68.9247C85.6622 66.6179 83.7964 64.7028 81.4183 64.7028V66.7028Z" fill="url(#paint1_linear_1206_6331)" mask="url(#path-3-outside-1_1206_6331)"/>
</g>
<g filter="url(#filter2_bd_1206_6331)">
<mask id="path-5-inside-2_1206_6331" fill="white">
<path fill-rule="evenodd" clip-rule="evenodd" d="M52.897 37.3597C52.897 39.1604 51.5657 40.5038 49.7908 40.5038C48.0158 40.5038 46.6846 39.1604 46.6846 37.3597V24.9096C46.6846 23.1089 48.0158 21.7614 49.7908 21.7614C51.5657 21.7614 52.897 23.1089 52.897 24.9096V37.3597ZM83.0728 37.3597C83.0728 39.1604 81.7012 40.5038 79.9666 40.5038C78.1916 40.5038 76.8604 39.1604 76.8604 37.3597V24.9096C76.8604 23.1089 78.1916 21.7614 79.9666 21.7614C81.7012 21.7614 83.0728 23.1089 83.0728 24.9096V37.3597Z"/>
</mask>
<path fill-rule="evenodd" clip-rule="evenodd" d="M52.897 37.3597C52.897 39.1604 51.5657 40.5038 49.7908 40.5038C48.0158 40.5038 46.6846 39.1604 46.6846 37.3597V24.9096C46.6846 23.1089 48.0158 21.7614 49.7908 21.7614C51.5657 21.7614 52.897 23.1089 52.897 24.9096V37.3597ZM83.0728 37.3597C83.0728 39.1604 81.7012 40.5038 79.9666 40.5038C78.1916 40.5038 76.8604 39.1604 76.8604 37.3597V24.9096C76.8604 23.1089 78.1916 21.7614 79.9666 21.7614C81.7012 21.7614 83.0728 23.1089 83.0728 24.9096V37.3597Z" fill="url(#paint2_linear_1206_6331)"/>
<path d="M49.7908 40.9038C51.7909 40.9038 53.297 39.3771 53.297 37.3597H52.497C52.497 38.9438 51.3406 40.1038 49.7908 40.1038V40.9038ZM46.2846 37.3597C46.2846 39.3771 47.7907 40.9038 49.7908 40.9038V40.1038C48.2409 40.1038 47.0846 38.9438 47.0846 37.3597H46.2846ZM46.2846 24.9096V37.3597H47.0846V24.9096H46.2846ZM49.7908 21.3614C47.79 21.3614 46.2846 22.8929 46.2846 24.9096H47.0846C47.0846 23.3248 48.2416 22.1614 49.7908 22.1614V21.3614ZM53.297 24.9096C53.297 22.8929 51.7916 21.3614 49.7908 21.3614V22.1614C51.3399 22.1614 52.497 23.3248 52.497 24.9096H53.297ZM53.297 37.3597V24.9096H52.497V37.3597H53.297ZM79.9666 40.9038C81.9229 40.9038 83.4728 39.3805 83.4728 37.3597H82.6728C82.6728 38.9403 81.4795 40.1038 79.9666 40.1038V40.9038ZM76.4604 37.3597C76.4604 39.3771 77.9664 40.9038 79.9666 40.9038V40.1038C78.4167 40.1038 77.2604 38.9438 77.2604 37.3597H76.4604ZM76.4604 24.9096V37.3597H77.2604V24.9096H76.4604ZM79.9666 21.3614C77.9658 21.3614 76.4604 22.8929 76.4604 24.9096H77.2604C77.2604 23.3248 78.4174 22.1614 79.9666 22.1614V21.3614ZM83.4728 24.9096C83.4728 22.8895 81.9236 21.3614 79.9666 21.3614V22.1614C81.4788 22.1614 82.6728 23.3283 82.6728 24.9096H83.4728ZM83.4728 37.3597V24.9096H82.6728V37.3597H83.4728Z" fill="url(#paint3_linear_1206_6331)" mask="url(#path-5-inside-2_1206_6331)"/>
</g>
<g filter="url(#filter3_bd_1206_6331)">
<mask id="path-7-inside-3_1206_6331" fill="white">
<path fill-rule="evenodd" clip-rule="evenodd" d="M44.9475 69.2107C45.0282 71.085 46.5611 72.559 48.4168 72.4733C50.2321 72.3957 51.6843 70.844 51.6037 68.9616C51.5633 67.1282 50.0707 65.6949 48.2554 65.6949C46.3998 65.7807 44.9475 67.3324 44.9475 69.2107ZM61.5267 69.2107C61.6073 71.085 63.1403 72.559 64.9959 72.4733C66.8112 72.3957 68.2635 70.844 68.1828 68.9616C68.1425 67.1282 66.6499 65.6949 64.8346 65.6949C62.9789 65.7807 61.5267 67.3324 61.5267 69.2107ZM78.1065 84.0289C78.1065 85.9073 79.5991 87.4589 81.4547 87.4998C83.3507 87.4998 84.8837 85.9481 84.8837 84.0289C84.8837 82.1139 83.3507 80.5622 81.4547 80.5622H81.4144C79.5588 80.603 78.0662 82.1506 78.1065 84.0289ZM64.9959 87.2959C63.1403 87.3817 61.6073 85.9076 61.5267 84.0292C61.5267 82.1509 62.9789 80.6033 64.8346 80.5176C66.6499 80.5176 68.1425 81.9508 68.1828 83.7883C68.2635 85.6667 66.8112 87.2183 64.9959 87.2959ZM48.3755 87.2959C46.5199 87.3817 44.9869 85.9076 44.9062 84.0292C44.9062 82.1509 46.3585 80.6033 48.2142 80.5176C50.0295 80.5176 51.5221 81.9508 51.5624 83.7883C51.6431 85.6667 50.1908 87.2183 48.3755 87.2959ZM81.4546 65.74C79.5989 65.7808 78.1467 67.2916 78.1467 69.17V69.2108C78.187 71.085 79.7199 72.5142 81.5756 72.4734C83.3909 72.4366 84.8432 70.885 84.8028 69.0066C84.7221 67.2059 83.2699 65.74 81.4546 65.74Z"/>
</mask>
<path fill-rule="evenodd" clip-rule="evenodd" d="M44.9475 69.2107C45.0282 71.085 46.5611 72.559 48.4168 72.4733C50.2321 72.3957 51.6843 70.844 51.6037 68.9616C51.5633 67.1282 50.0707 65.6949 48.2554 65.6949C46.3998 65.7807 44.9475 67.3324 44.9475 69.2107ZM61.5267 69.2107C61.6073 71.085 63.1403 72.559 64.9959 72.4733C66.8112 72.3957 68.2635 70.844 68.1828 68.9616C68.1425 67.1282 66.6499 65.6949 64.8346 65.6949C62.9789 65.7807 61.5267 67.3324 61.5267 69.2107ZM78.1065 84.0289C78.1065 85.9073 79.5991 87.4589 81.4547 87.4998C83.3507 87.4998 84.8837 85.9481 84.8837 84.0289C84.8837 82.1139 83.3507 80.5622 81.4547 80.5622H81.4144C79.5588 80.603 78.0662 82.1506 78.1065 84.0289ZM64.9959 87.2959C63.1403 87.3817 61.6073 85.9076 61.5267 84.0292C61.5267 82.1509 62.9789 80.6033 64.8346 80.5176C66.6499 80.5176 68.1425 81.9508 68.1828 83.7883C68.2635 85.6667 66.8112 87.2183 64.9959 87.2959ZM48.3755 87.2959C46.5199 87.3817 44.9869 85.9076 44.9062 84.0292C44.9062 82.1509 46.3585 80.6033 48.2142 80.5176C50.0295 80.5176 51.5221 81.9508 51.5624 83.7883C51.6431 85.6667 50.1908 87.2183 48.3755 87.2959ZM81.4546 65.74C79.5989 65.7808 78.1467 67.2916 78.1467 69.17V69.2108C78.187 71.085 79.7199 72.5142 81.5756 72.4734C83.3909 72.4366 84.8432 70.885 84.8028 69.0066C84.7221 67.2059 83.2699 65.74 81.4546 65.74Z" fill="url(#paint4_linear_1206_6331)"/>
<path d="M48.4168 72.4733L48.3997 72.0736L48.3983 72.0737L48.4168 72.4733ZM44.9475 69.2107H44.5475V69.2193L44.5479 69.2279L44.9475 69.2107ZM51.6037 68.9616L51.2037 68.9704L51.204 68.9787L51.6037 68.9616ZM48.2554 65.6949V65.2949H48.2462L48.237 65.2954L48.2554 65.6949ZM64.9959 72.4733L64.9788 72.0736L64.9775 72.0737L64.9959 72.4733ZM61.5267 69.2107H61.1267V69.2193L61.127 69.2279L61.5267 69.2107ZM68.1828 68.9616L67.7828 68.9704L67.7832 68.9787L68.1828 68.9616ZM64.8346 65.6949V65.2949H64.8253L64.8161 65.2954L64.8346 65.6949ZM81.4547 87.4998L81.4459 87.8998H81.4547V87.4998ZM78.1065 84.0289H78.5066L78.5064 84.0203L78.1065 84.0289ZM81.4144 80.5622V80.1621L81.4056 80.1623L81.4144 80.5622ZM61.5267 84.0292H61.1267V84.0378L61.127 84.0464L61.5267 84.0292ZM64.9959 87.2959L64.9788 86.8963L64.9775 86.8963L64.9959 87.2959ZM64.8346 80.5176V80.1176H64.8253L64.8161 80.118L64.8346 80.5176ZM68.1828 83.7883L67.7828 83.7971L67.7832 83.8055L68.1828 83.7883ZM44.9062 84.0292H44.5062V84.0378L44.5066 84.0464L44.9062 84.0292ZM48.3755 87.2959L48.3584 86.8963L48.357 86.8963L48.3755 87.2959ZM48.2142 80.5176V80.1176H48.2049L48.1957 80.118L48.2142 80.5176ZM51.5624 83.7883L51.1624 83.7971L51.1628 83.8055L51.5624 83.7883ZM81.4546 65.74V65.3399L81.4458 65.3401L81.4546 65.74ZM78.1467 69.2108H77.7466L77.7468 69.2194L78.1467 69.2108ZM81.5756 72.4734L81.5675 72.0735L81.5668 72.0735L81.5756 72.4734ZM84.8028 69.0066L85.2028 68.998L85.2024 68.9887L84.8028 69.0066ZM48.3983 72.0737C46.7768 72.1486 45.4189 70.8597 45.3471 69.1935L44.5479 69.2279C44.6375 71.3102 46.3454 72.9694 48.4352 72.8729L48.3983 72.0737ZM51.204 68.9787C51.2753 70.6411 49.9936 72.0055 48.3997 72.0736L48.4339 72.8729C50.4706 72.7859 52.0934 71.0469 52.0033 68.9445L51.204 68.9787ZM48.2554 66.0949C49.8561 66.0949 51.1683 67.3572 51.2038 68.9704L52.0036 68.9528C51.9584 66.8992 50.2854 65.2949 48.2554 65.2949V66.0949ZM45.3475 69.2107C45.3475 67.5401 46.6377 66.1701 48.2739 66.0945L48.237 65.2954C46.1618 65.3913 44.5475 67.1247 44.5475 69.2107H45.3475ZM64.9775 72.0737C63.356 72.1486 61.998 70.8597 61.9263 69.1935L61.127 69.2279C61.2167 71.3102 62.9246 72.9694 65.0144 72.8729L64.9775 72.0737ZM67.7832 68.9787C67.8544 70.6411 66.5727 72.0055 64.9788 72.0736L65.013 72.8729C67.0497 72.7859 68.6726 71.0469 68.5824 68.9445L67.7832 68.9787ZM64.8346 66.0949C66.4352 66.0949 67.7474 67.3572 67.7829 68.9704L68.5827 68.9528C68.5375 66.8992 66.8645 65.2949 64.8346 65.2949V66.0949ZM61.9267 69.2107C61.9267 67.5401 63.2169 66.1701 64.853 66.0945L64.8161 65.2954C62.7409 65.3913 61.1267 67.1247 61.1267 69.2107H61.9267ZM81.4635 87.0999C79.8308 87.0639 78.5065 85.6953 78.5065 84.0289H77.7065C77.7065 86.1192 79.3674 87.8539 81.4459 87.8997L81.4635 87.0999ZM84.4837 84.0289C84.4837 85.7318 83.1253 87.0998 81.4547 87.0998V87.8998C83.5762 87.8998 85.2837 86.1644 85.2837 84.0289H84.4837ZM81.4547 80.9622C83.1256 80.9622 84.4837 82.3305 84.4837 84.0289H85.2837C85.2837 81.8972 83.5759 80.1622 81.4547 80.1622V80.9622ZM81.4144 80.9622H81.4547V80.1622H81.4144V80.9622ZM78.5064 84.0203C78.4708 82.3628 79.7884 80.9981 81.4232 80.9621L81.4056 80.1623C79.3291 80.208 77.6615 81.9384 77.7066 84.0375L78.5064 84.0203ZM61.127 84.0464C61.2166 86.1325 62.9243 87.7921 65.0144 87.6955L64.9775 86.8963C63.3563 86.9713 61.9981 85.6827 61.9263 84.0121L61.127 84.0464ZM64.8161 80.118C62.7415 80.2139 61.1267 81.9426 61.1267 84.0292H61.9267C61.9267 82.3592 63.2163 80.9928 64.853 80.9172L64.8161 80.118ZM68.5827 83.7796C68.5375 81.7221 66.8649 80.1176 64.8346 80.1176V80.9176C66.4349 80.9176 67.7474 82.1796 67.7829 83.7971L68.5827 83.7796ZM65.013 87.6956C67.0494 87.6085 68.6726 85.8699 68.5824 83.7712L67.7832 83.8055C67.8544 85.4634 66.5731 86.8281 64.9788 86.8963L65.013 87.6956ZM44.5066 84.0464C44.5962 86.1325 46.3039 87.7921 48.394 87.6955L48.357 86.8963C46.7358 86.9713 45.3776 85.6827 45.3059 84.0121L44.5066 84.0464ZM48.1957 80.118C46.1211 80.2139 44.5062 81.9426 44.5062 84.0292H45.3063C45.3063 82.3592 46.5959 80.9928 48.2326 80.9172L48.1957 80.118ZM51.9623 83.7796C51.9171 81.7221 50.2444 80.1176 48.2142 80.1176V80.9176C49.8145 80.9176 51.127 82.1796 51.1625 83.7971L51.9623 83.7796ZM48.3926 87.6956C50.429 87.6085 52.0522 85.8699 51.962 83.7712L51.1628 83.8055C51.234 85.4634 49.9526 86.8281 48.3584 86.8963L48.3926 87.6956ZM78.5467 69.17C78.5467 67.5034 79.8308 66.1758 81.4634 66.1399L81.4458 65.3401C79.367 65.3858 77.7467 67.0798 77.7467 69.17H78.5467ZM78.5467 69.2108V69.17H77.7467V69.2108H78.5467ZM81.5668 72.0735C79.9274 72.1095 78.5821 70.8508 78.5466 69.2022L77.7468 69.2194C77.792 71.3193 79.5125 72.9189 81.5844 72.8733L81.5668 72.0735ZM84.4029 69.0152C84.4387 70.6832 83.1512 72.0414 81.5675 72.0735L81.5837 72.8733C83.6306 72.8319 85.2476 71.0867 85.2027 68.998L84.4029 69.0152ZM81.4546 66.14C83.0448 66.14 84.3316 67.4262 84.4032 69.0245L85.2024 68.9887C85.1127 66.9856 83.495 65.34 81.4546 65.34V66.14Z" fill="url(#paint5_linear_1206_6331)" mask="url(#path-7-inside-3_1206_6331)"/>
</g>
<g opacity="0.5" filter="url(#filter4_b_1206_6331)">
<path d="M31.8788 51.7015C31.8788 53.4362 33.2222 54.8077 35.0229 54.8077L93.2307 54.8077C95.0314 54.8077 96.3789 53.4362 96.3789 51.7015C96.3789 49.9266 95.0314 48.5953 93.2307 48.5953L35.0229 48.5953C33.2222 48.5953 31.8788 49.9266 31.8788 51.7015Z" fill="url(#paint6_linear_1206_6331)"/>
</g>
<defs>
<filter id="filter0_f_1206_6331" x="0.501038" y="0.430176" width="91.1779" height="96.4377" filterUnits="userSpaceOnUse" color-interpolation-filters="sRGB">
<feFlood flood-opacity="0" result="BackgroundImageFix"/>
<feBlend mode="normal" in="SourceGraphic" in2="BackgroundImageFix" result="shape"/>
<feGaussianBlur stdDeviation="9.5" result="effect1_foregroundBlur_1206_6331"/>
</filter>
<filter id="filter1_b_1206_6331" x="3.12891" y="2.84534" width="123.5" height="125.583" filterUnits="userSpaceOnUse" color-interpolation-filters="sRGB">
<feFlood flood-opacity="0" result="BackgroundImageFix"/>
<feGaussianBlur in="BackgroundImage" stdDeviation="12"/>
<feComposite in2="SourceAlpha" operator="in" result="effect1_backgroundBlur_1206_6331"/>
<feBlend mode="normal" in="SourceGraphic" in2="effect1_backgroundBlur_1206_6331" result="shape"/>
</filter>
<filter id="filter2_bd_1206_6331" x="31.6846" y="6.76135" width="66.3882" height="48.7426" filterUnits="userSpaceOnUse" color-interpolation-filters="sRGB">
<feFlood flood-opacity="0" result="BackgroundImageFix"/>
<feGaussianBlur in="BackgroundImage" stdDeviation="7.5"/>
<feComposite in2="SourceAlpha" operator="in" result="effect1_backgroundBlur_1206_6331"/>
<feColorMatrix in="SourceAlpha" type="matrix" values="0 0 0 0 0 0 0 0 0 0 0 0 0 0 0 0 0 0 127 0" result="hardAlpha"/>
<feOffset dx="5" dy="5"/>
<feGaussianBlur stdDeviation="5"/>
<feColorMatrix type="matrix" values="0 0 0 0 1 0 0 0 0 0.537255 0 0 0 0 0.160784 0 0 0 0.2 0"/>
<feBlend mode="normal" in2="effect1_backgroundBlur_1206_6331" result="effect2_dropShadow_1206_6331"/>
<feBlend mode="normal" in="SourceGraphic" in2="effect2_dropShadow_1206_6331" result="shape"/>
</filter>
<filter id="filter3_bd_1206_6331" x="29.9062" y="50.6949" width="69.9774" height="51.8048" filterUnits="userSpaceOnUse" color-interpolation-filters="sRGB">
<feFlood flood-opacity="0" result="BackgroundImageFix"/>
<feGaussianBlur in="BackgroundImage" stdDeviation="7.5"/>
<feComposite in2="SourceAlpha" operator="in" result="effect1_backgroundBlur_1206_6331"/>
<feColorMatrix in="SourceAlpha" type="matrix" values="0 0 0 0 0 0 0 0 0 0 0 0 0 0 0 0 0 0 127 0" result="hardAlpha"/>
<feOffset dx="5" dy="5"/>
<feGaussianBlur stdDeviation="5"/>
<feColorMatrix type="matrix" values="0 0 0 0 1 0 0 0 0 0.52549 0 0 0 0 0.137255 0 0 0 0.5 0"/>
<feBlend mode="normal" in2="effect1_backgroundBlur_1206_6331" result="effect2_dropShadow_1206_6331"/>
<feBlend mode="normal" in="SourceGraphic" in2="effect2_dropShadow_1206_6331" result="shape"/>
</filter>
<filter id="filter4_b_1206_6331" x="16.8788" y="33.5953" width="94.5001" height="36.2124" filterUnits="userSpaceOnUse" color-interpolation-filters="sRGB">
<feFlood flood-opacity="0" result="BackgroundImageFix"/>
<feGaussianBlur in="BackgroundImage" stdDeviation="7.5"/>
<feComposite in2="SourceAlpha" operator="in" result="effect1_backgroundBlur_1206_6331"/>
<feBlend mode="normal" in="SourceGraphic" in2="effect1_backgroundBlur_1206_6331" result="shape"/>
</filter>
<linearGradient id="paint0_linear_1206_6331" x1="63.4975" y1="14.7877" x2="34.2601" y2="84.487" gradientUnits="userSpaceOnUse">
<stop stop-color="#CC600D"/>
<stop offset="1" stop-color="#E6975B"/>
</linearGradient>
<linearGradient id="paint1_linear_1206_6331" x1="96.4178" y1="41.4942" x2="14.5411" y2="44.0901" gradientUnits="userSpaceOnUse">
<stop stop-color="white"/>
<stop offset="1" stop-color="white" stop-opacity="0.2"/>
</linearGradient>
<linearGradient id="paint2_linear_1206_6331" x1="80.4929" y1="25.1459" x2="40.0787" y2="27.7041" gradientUnits="userSpaceOnUse">
<stop stop-color="white"/>
<stop offset="1" stop-color="white" stop-opacity="0.2"/>
</linearGradient>
<linearGradient id="paint3_linear_1206_6331" x1="80.4929" y1="25.1459" x2="40.0787" y2="27.7041" gradientUnits="userSpaceOnUse">
<stop stop-color="white"/>
<stop offset="1" stop-color="white" stop-opacity="0.2"/>
</linearGradient>
<linearGradient id="paint4_linear_1206_6331" x1="82.0493" y1="69.6325" x2="37.6296" y2="72.2878" gradientUnits="userSpaceOnUse">
<stop stop-color="white"/>
<stop offset="1" stop-color="white" stop-opacity="0.2"/>
</linearGradient>
<linearGradient id="paint5_linear_1206_6331" x1="82.0493" y1="69.6325" x2="37.6296" y2="72.2878" gradientUnits="userSpaceOnUse">
<stop stop-color="white"/>
<stop offset="1" stop-color="white" stop-opacity="0.2"/>
</linearGradient>
<linearGradient id="paint6_linear_1206_6331" x1="84.7315" y1="54.3673" x2="84.7097" y2="47.44" gradientUnits="userSpaceOnUse">
<stop stop-color="white"/>
<stop offset="1" stop-color="white" stop-opacity="0.2"/>
</linearGradient>
</defs>
</svg>
