<svg width="114" height="92" viewBox="0 0 114 92" fill="none" xmlns="http://www.w3.org/2000/svg">
<g filter="url(#filter0_b_1206_6369)">
<path d="M103.559 36.9967C102.493 35.7486 101.209 34.7084 99.8043 33.8651C96.7224 31.9851 93.1036 31.2065 89.4949 31.6122C89.3867 31.3383 89.2232 31.0554 89.0794 30.7904C88.9383 30.5209 88.7366 29.9486 88.5094 29.5699L87.8905 28.6835C87.5921 28.1713 87.2336 27.7138 86.8364 27.2603C86.8172 27.1913 86.7785 27.1044 86.7148 27.0086L86.5834 26.9298C85.536 25.6923 84.3246 24.6321 82.9471 23.7478L82.7022 23.6008C82.0786 23.2266 81.432 22.896 80.7514 22.6117L80.4842 22.4514C79.764 22.1373 79.0046 21.8935 78.2252 21.7286C68.285 19.4612 59.9105 26.7023 57.6956 36.0956C56.7031 40.9793 56.8058 46.0115 57.9868 50.8064C59.8143 57.5977 62.3412 64.1423 65.5406 70.3637L65.9044 71.0697L66.6629 71.0676C73.6535 70.9317 80.5908 70.0672 87.3901 68.4838C92.197 67.2827 96.6972 64.9827 100.518 61.7964C107.723 55.3982 110.174 44.6019 103.559 36.9967Z" fill="url(#paint0_linear_1206_6369)"/>
</g>
<g opacity="0.5" filter="url(#filter1_f_1206_6369)">
<path d="M88.9482 40.3558C88.276 39.5681 87.4658 38.9117 86.5791 38.3796C84.6342 37.1932 82.3506 36.7019 80.0734 36.9579C80.0051 36.7851 79.902 36.6066 79.8112 36.4393C79.7221 36.2693 79.5949 35.9081 79.4515 35.6692L79.0609 35.1098C78.8727 34.7865 78.6464 34.4978 78.3958 34.2117C78.3837 34.1681 78.3592 34.1133 78.319 34.0529L78.2361 34.0031C77.5752 33.2222 76.8108 32.5532 75.9415 31.9952L75.7869 31.9024C75.3934 31.6662 74.9854 31.4576 74.5559 31.2783L74.3873 31.1771C73.9328 30.9788 73.4536 30.825 72.9618 30.721C66.6891 29.2901 61.4044 33.8596 60.0068 39.7871C59.3805 42.8689 59.4453 46.0444 60.1905 49.0702C61.3438 53.3558 62.9383 57.4857 64.9573 61.4117L65.1868 61.8572L65.6655 61.8558C70.0769 61.7701 74.4546 61.2246 78.7452 60.2254C81.7785 59.4674 84.6184 58.0161 87.0293 56.0053C91.5761 51.9678 93.1228 45.155 88.9482 40.3558Z" fill="#FA6767"/>
</g>
<g filter="url(#filter2_b_1206_6369)">
<path d="M97.3151 14.2215C97.0564 13.9674 96.7535 13.7633 96.4278 13.6049C95.7128 13.2507 94.901 13.1495 94.1144 13.3088C94.0853 13.2506 94.0438 13.1915 94.007 13.136C93.9707 13.0794 93.9152 12.9573 93.8579 12.8783L93.7044 12.6952C93.6288 12.5882 93.541 12.4944 93.4447 12.4023C93.4392 12.3875 93.429 12.3691 93.4131 12.3493L93.3826 12.3345C93.128 12.0823 92.8408 11.8724 92.5204 11.7045L92.4636 11.6768C92.3191 11.6065 92.1703 11.5463 92.0149 11.4969L91.953 11.4668C91.7884 11.4116 91.6164 11.3727 91.4416 11.3515C89.2093 11.0451 87.506 12.8017 87.2006 14.9127C87.0768 16.0071 87.197 17.113 87.5501 18.1457C88.0841 19.6054 88.7674 20.9972 89.5924 22.3048L89.6862 22.4532L89.8531 22.438C91.3895 22.2725 92.9 21.9476 94.3662 21.4672C95.4012 21.1095 96.3474 20.5159 97.1267 19.7403C98.5888 18.1919 98.9191 15.7675 97.3151 14.2215Z" fill="url(#paint1_linear_1206_6369)"/>
</g>
<g filter="url(#filter3_b_1206_6369)">
<mask id="path-4-outside-1_1206_6369" maskUnits="userSpaceOnUse" x="-0.65588" y="-1.06158" width="97.5677" height="94.3084" fill="black">
<rect fill="white" x="-0.65588" y="-1.06158" width="97.5677" height="94.3084"/>
<path d="M64.9089 4.32266C62.3188 3.92486 59.6811 4.00672 57.1024 4.45301C51.4146 5.39524 46.2269 8.22928 42.2869 12.4847C41.8703 12.2664 41.3776 12.0949 40.9272 11.9245C40.4754 11.746 39.6344 11.2643 38.9648 11.0435L37.2916 10.6175C36.3964 10.3094 35.4857 10.1303 34.5323 9.99641C34.4371 9.9329 34.2997 9.8683 34.1227 9.81894L33.8816 9.86067C31.3242 9.45722 28.7534 9.43911 26.1653 9.80704L25.7157 9.88484C24.5714 10.0829 23.4447 10.3578 22.3253 10.7241L21.8348 10.809C20.6364 11.1806 19.4639 11.6781 18.3495 12.2919C3.96523 19.9207 1.39422 37.4129 8.51604 51.081C12.411 58.0214 17.7852 63.9986 24.2156 68.564C33.5104 74.8687 43.3935 80.1456 53.7525 84.3299L54.9289 84.804L55.8438 84.0101C64.1544 76.5527 71.6403 68.2699 78.2093 59.2618C82.7683 52.7946 85.81 45.3188 87.1052 37.4802C89.1419 22.2272 80.842 6.61629 64.9089 4.32266Z"/>
</mask>
<path d="M64.9089 4.32266C62.3188 3.92486 59.6811 4.00672 57.1024 4.45301C51.4146 5.39524 46.2269 8.22928 42.2869 12.4847C41.8703 12.2664 41.3776 12.0949 40.9272 11.9245C40.4754 11.746 39.6344 11.2643 38.9648 11.0435L37.2916 10.6175C36.3964 10.3094 35.4857 10.1303 34.5323 9.99641C34.4371 9.9329 34.2997 9.8683 34.1227 9.81894L33.8816 9.86067C31.3242 9.45722 28.7534 9.43911 26.1653 9.80704L25.7157 9.88484C24.5714 10.0829 23.4447 10.3578 22.3253 10.7241L21.8348 10.809C20.6364 11.1806 19.4639 11.6781 18.3495 12.2919C3.96523 19.9207 1.39422 37.4129 8.51604 51.081C12.411 58.0214 17.7852 63.9986 24.2156 68.564C33.5104 74.8687 43.3935 80.1456 53.7525 84.3299L54.9289 84.804L55.8438 84.0101C64.1544 76.5527 71.6403 68.2699 78.2093 59.2618C82.7683 52.7946 85.81 45.3188 87.1052 37.4802C89.1419 22.2272 80.842 6.61629 64.9089 4.32266Z" fill="#FA6767" fill-opacity="0.35"/>
<path d="M57.1024 4.45301L57.2658 5.43959L57.2729 5.43836L57.1024 4.45301ZM42.2869 12.4847L41.8227 13.3705C42.2228 13.5802 42.7138 13.4956 43.0207 13.1641L42.2869 12.4847ZM40.9272 11.9245L40.5597 12.8545C40.5642 12.8563 40.5688 12.8581 40.5734 12.8598L40.9272 11.9245ZM38.9648 11.0435L39.278 10.0938C39.2561 10.0866 39.2339 10.0801 39.2115 10.0744L38.9648 11.0435ZM37.2916 10.6175L36.9661 11.563C36.992 11.572 37.0183 11.5798 37.0448 11.5866L37.2916 10.6175ZM34.5323 9.99641L33.9773 10.8282C34.1023 10.9116 34.2444 10.9658 34.3932 10.9867L34.5323 9.99641ZM34.1227 9.81894L34.3915 8.85573C34.2485 8.81584 34.0985 8.80828 33.9522 8.83359L34.1227 9.81894ZM33.8816 9.86067L33.7258 10.8485C33.834 10.8655 33.9442 10.8647 34.0521 10.846L33.8816 9.86067ZM26.1653 9.80704L26.0245 8.81699C26.0146 8.8184 26.0047 8.81997 25.9948 8.82168L26.1653 9.80704ZM22.3253 10.7241L22.4958 11.7095C22.5434 11.7013 22.5903 11.6896 22.6363 11.6746L22.3253 10.7241ZM21.8348 10.809L21.6643 9.82367C21.6218 9.83102 21.5799 9.84111 21.5387 9.85387L21.8348 10.809ZM18.3495 12.2919L18.818 13.1754C18.8227 13.1729 18.8273 13.1704 18.8319 13.1679L18.3495 12.2919ZM8.51604 51.081L7.62921 51.5431C7.63399 51.5523 7.63892 51.5614 7.64398 51.5704L8.51604 51.081ZM24.2156 68.564L23.6367 69.3794C23.6425 69.3835 23.6483 69.3876 23.6542 69.3916L24.2156 68.564ZM53.7525 84.3299L53.3779 85.2571L53.3787 85.2574L53.7525 84.3299ZM54.9289 84.804L54.5551 85.7315C54.9033 85.8718 55.3008 85.8053 55.5843 85.5593L54.9289 84.804ZM55.8438 84.0101L56.4992 84.7653C56.5034 84.7617 56.5076 84.758 56.5117 84.7543L55.8438 84.0101ZM78.2093 59.2618L79.0173 59.851C79.0204 59.8467 79.0235 59.8424 79.0266 59.838L78.2093 59.2618ZM87.1052 37.4802L88.0918 37.6432C88.0935 37.633 88.0951 37.6228 88.0964 37.6126L87.1052 37.4802ZM65.0607 3.33425C62.3497 2.91789 59.6023 3.0055 56.9318 3.46765L57.2729 5.43836C59.76 5.00794 62.2879 4.93184 64.7571 5.31107L65.0607 3.33425ZM56.9389 3.46645C51.0273 4.44578 45.6404 7.39078 41.5531 11.8054L43.0207 13.1641C46.8134 9.06777 51.802 6.34471 57.2658 5.43956L56.9389 3.46645ZM42.7511 11.599C42.265 11.3443 41.69 11.1439 41.2811 10.9892L40.5734 12.8598C41.0653 13.0459 41.4756 13.1886 41.8227 13.3705L42.7511 11.599ZM41.2948 10.9945C41.1159 10.9238 40.8537 10.7895 40.4648 10.6005C40.1148 10.4303 39.6833 10.2275 39.278 10.0938L38.6516 11.9932C38.9159 12.0803 39.2397 12.2287 39.5905 12.3992C39.9025 12.5509 40.2867 12.7467 40.5597 12.8545L41.2948 10.9945ZM39.2115 10.0744L37.5383 9.6484L37.0448 11.5866L38.7181 12.0126L39.2115 10.0744ZM37.617 9.67192C36.6378 9.33489 35.6576 9.14459 34.6713 9.00612L34.3932 10.9867C35.3138 11.1159 36.155 11.2839 36.9661 11.563L37.617 9.67192ZM35.0873 9.16458C34.8896 9.03267 34.6517 8.92833 34.3915 8.85573L33.854 10.7822C33.8986 10.7946 33.9316 10.8071 33.9535 10.8168C33.9761 10.8268 33.983 10.8321 33.9773 10.8282L35.0873 9.16458ZM33.9522 8.83359L33.7111 8.87532L34.0521 10.846L34.2933 10.8043L33.9522 8.83359ZM34.0374 8.87289C31.3809 8.45381 28.7102 8.43519 26.0245 8.81699L26.306 10.7971C28.7966 10.443 31.2674 10.4606 33.7258 10.8485L34.0374 8.87289ZM25.9948 8.82168L25.5452 8.89948L25.8863 10.8702L26.3358 10.7924L25.9948 8.82168ZM25.5452 8.89948C24.3559 9.1053 23.182 9.39161 22.0143 9.77374L22.6363 11.6746C23.7073 11.3241 24.787 11.0604 25.8863 10.8702L25.5452 8.89948ZM22.1547 9.7388L21.6643 9.82367L22.0054 11.7944L22.4958 11.7095L22.1547 9.7388ZM21.5387 9.85387C20.2756 10.2455 19.0408 10.7696 17.8671 11.416L18.8319 13.1679C19.8871 12.5867 20.9971 12.1157 22.131 11.7642L21.5387 9.85387ZM17.881 11.4085C2.87721 19.3658 0.329863 37.5343 7.62921 51.5431L9.40287 50.6189C2.45858 37.2916 5.05324 20.4756 18.818 13.1754L17.881 11.4085ZM7.64398 51.5704C11.611 58.6391 17.085 64.7279 23.6367 69.3794L24.7945 67.7486C18.4853 63.2693 13.2111 57.4036 9.3881 50.5916L7.64398 51.5704ZM23.6542 69.3916C33.0072 75.7357 42.9528 81.0461 53.3779 85.2571L54.127 83.4027C43.8341 79.2451 34.0136 74.0017 24.7769 67.7364L23.6542 69.3916ZM53.3787 85.2574L54.5551 85.7315L55.3027 83.8765L54.1263 83.4024L53.3787 85.2574ZM55.5843 85.5593L56.4992 84.7653L55.1884 83.2548L54.2735 84.0487L55.5843 85.5593ZM56.5117 84.7543C64.8742 77.2504 72.407 68.9156 79.0173 59.851L77.4013 58.6726C70.8735 67.6241 63.4347 75.8549 55.1759 83.2658L56.5117 84.7543ZM79.0266 59.838C83.6736 53.2459 86.7724 45.6285 88.0918 37.6432L86.1186 37.3172C84.8476 45.0091 81.8629 52.3433 77.392 58.6856L79.0266 59.838ZM88.0964 37.6126C90.1827 21.9882 81.6844 5.72723 65.0514 3.33286L64.7664 5.31245C79.9997 7.50534 88.1011 22.4662 86.114 37.3479L88.0964 37.6126Z" fill="url(#paint2_linear_1206_6369)" mask="url(#path-4-outside-1_1206_6369)"/>
</g>
<g filter="url(#filter4_bd_1206_6369)">
<path d="M75.7559 28.3272C75.9311 30.0689 74.7334 31.661 73.0656 31.996C72.1516 32.0657 71.2234 31.8097 70.531 31.2139C69.8386 30.6182 69.4003 29.7638 69.316 28.8145L69.2941 28.6878C68.7997 25.8311 66.6002 23.5558 63.8108 23.0283C61.9889 22.7164 60.7645 20.9921 61.0396 19.1766C61.3556 17.3541 63.0383 16.1326 64.8136 16.4189C70.4362 17.5083 74.8035 22.094 75.6717 27.8408L75.7559 28.3272Z" fill="url(#paint3_linear_1206_6369)"/>
<path d="M69.5152 28.7968L69.5145 28.7885L69.5131 28.7804L69.4911 28.6537C68.983 25.7175 66.7219 23.3753 63.8479 22.8318L63.8479 22.8318L63.8445 22.8312C62.1321 22.538 60.9793 20.917 61.237 19.2087C61.5357 17.4924 63.1172 16.3496 64.7787 16.6158C70.3153 17.69 74.6183 22.2072 75.474 27.8707L75.4739 27.8707L75.4747 27.8749L75.5576 28.3541C75.7182 29.9866 74.5967 31.478 73.0381 31.7974C72.1735 31.8606 71.305 31.6161 70.6614 31.0623C70.0095 30.5014 69.595 29.6955 69.5152 28.7968Z" stroke="url(#paint4_linear_1206_6369)" stroke-width="0.4"/>
</g>
<defs>
<filter id="filter0_b_1206_6369" x="44.0195" y="8.30969" width="76.4021" height="75.76" filterUnits="userSpaceOnUse" color-interpolation-filters="sRGB">
<feFlood flood-opacity="0" result="BackgroundImageFix"/>
<feGaussianBlur in="BackgroundImage" stdDeviation="6.5"/>
<feComposite in2="SourceAlpha" operator="in" result="effect1_backgroundBlur_1206_6369"/>
<feBlend mode="normal" in="SourceGraphic" in2="effect1_backgroundBlur_1206_6369" result="shape"/>
</filter>
<filter id="filter1_f_1206_6369" x="41.5801" y="12.4565" width="67.8058" height="67.4006" filterUnits="userSpaceOnUse" color-interpolation-filters="sRGB">
<feFlood flood-opacity="0" result="BackgroundImageFix"/>
<feBlend mode="normal" in="SourceGraphic" in2="BackgroundImageFix" result="shape"/>
<feGaussianBlur stdDeviation="9" result="effect1_foregroundBlur_1206_6369"/>
</filter>
<filter id="filter2_b_1206_6369" x="74.1533" y="-1.68335" width="37.2255" height="37.1366" filterUnits="userSpaceOnUse" color-interpolation-filters="sRGB">
<feFlood flood-opacity="0" result="BackgroundImageFix"/>
<feGaussianBlur in="BackgroundImage" stdDeviation="6.5"/>
<feComposite in2="SourceAlpha" operator="in" result="effect1_backgroundBlur_1206_6369"/>
<feBlend mode="normal" in="SourceGraphic" in2="effect1_backgroundBlur_1206_6369" result="shape"/>
</filter>
<filter id="filter3_b_1206_6369" x="-20.3051" y="-20.9337" width="132.712" height="130.738" filterUnits="userSpaceOnUse" color-interpolation-filters="sRGB">
<feFlood flood-opacity="0" result="BackgroundImageFix"/>
<feGaussianBlur in="BackgroundImage" stdDeviation="12"/>
<feComposite in2="SourceAlpha" operator="in" result="effect1_backgroundBlur_1206_6369"/>
<feBlend mode="normal" in="SourceGraphic" in2="effect1_backgroundBlur_1206_6369" result="shape"/>
</filter>
<filter id="filter4_bd_1206_6369" x="46.001" y="1.37732" width="44.7719" height="45.6299" filterUnits="userSpaceOnUse" color-interpolation-filters="sRGB">
<feFlood flood-opacity="0" result="BackgroundImageFix"/>
<feGaussianBlur in="BackgroundImage" stdDeviation="7.5"/>
<feComposite in2="SourceAlpha" operator="in" result="effect1_backgroundBlur_1206_6369"/>
<feColorMatrix in="SourceAlpha" type="matrix" values="0 0 0 0 0 0 0 0 0 0 0 0 0 0 0 0 0 0 127 0" result="hardAlpha"/>
<feOffset dx="5" dy="5"/>
<feGaussianBlur stdDeviation="5"/>
<feColorMatrix type="matrix" values="0 0 0 0 1 0 0 0 0 0.321569 0 0 0 0 0.54902 0 0 0 0.5 0"/>
<feBlend mode="normal" in2="effect1_backgroundBlur_1206_6369" result="effect2_dropShadow_1206_6369"/>
<feBlend mode="normal" in="SourceGraphic" in2="effect2_dropShadow_1206_6369" result="shape"/>
</filter>
<linearGradient id="paint0_linear_1206_6369" x1="91.2314" y1="28.7193" x2="65.8378" y2="71.0297" gradientUnits="userSpaceOnUse">
<stop stop-color="#CB3131"/>
<stop offset="1" stop-color="#E56F6F"/>
</linearGradient>
<linearGradient id="paint1_linear_1206_6369" x1="94.4406" y1="12.6383" x2="89.6708" y2="22.4457" gradientUnits="userSpaceOnUse">
<stop stop-color="#CB3131"/>
<stop offset="1" stop-color="#E56F6F"/>
</linearGradient>
<linearGradient id="paint2_linear_1206_6369" x1="78.8685" y1="15.1274" x2="-11.6275" y2="34.0068" gradientUnits="userSpaceOnUse">
<stop stop-color="white"/>
<stop offset="1" stop-color="white" stop-opacity="0.2"/>
</linearGradient>
<linearGradient id="paint3_linear_1206_6369" x1="73.0148" y1="17.9238" x2="58.6734" y2="20.7805" gradientUnits="userSpaceOnUse">
<stop stop-color="white"/>
<stop offset="1" stop-color="white" stop-opacity="0.2"/>
</linearGradient>
<linearGradient id="paint4_linear_1206_6369" x1="73.0148" y1="17.9238" x2="58.6734" y2="20.7805" gradientUnits="userSpaceOnUse">
<stop stop-color="white"/>
<stop offset="1" stop-color="white" stop-opacity="0.2"/>
</linearGradient>
</defs>
</svg>
