<svg width="20" height="20" viewBox="0 0 20 20" fill="none" xmlns="http://www.w3.org/2000/svg">
<path d="M10.0001 5.87939C9.18501 5.87939 8.38825 6.12109 7.71056 6.57391C7.03286 7.02673 6.50466 7.67034 6.19275 8.42336C5.88084 9.17637 5.79923 10.005 5.95824 10.8044C6.11725 11.6038 6.50975 12.3381 7.08608 12.9144C7.66241 13.4907 8.3967 13.8832 9.19609 14.0422C9.99549 14.2012 10.8241 14.1196 11.5771 13.8077C12.3301 13.4958 12.9737 12.9676 13.4265 12.2899C13.8794 11.6122 14.1211 10.8155 14.1211 10.0004C14.1197 8.90785 13.6851 7.86043 12.9126 7.08788C12.14 6.31532 11.0926 5.88072 10.0001 5.87939Z" fill="#545569"/>
<path d="M17.9861 2.0155C17.3515 1.37585 16.5964 0.868405 15.7644 0.522532C14.9324 0.176658 14.0401 -0.000776777 13.1391 0.00049507H6.86305C5.04451 0.00524531 3.30178 0.729698 2.01578 2.01552C0.729775 3.30133 0.00506864 5.04395 5.34058e-05 6.86249L5.34058e-05 13.1395C0.00533243 14.9579 0.730155 16.7002 2.01613 17.9858C3.30211 19.2714 5.04468 19.9957 6.86305 20.0005H13.1401C14.9579 19.995 16.6997 19.2703 17.985 17.9848C19.2704 16.6993 19.9948 14.9573 20.0001 13.1395V6.86249C20.0013 5.96148 19.8239 5.06916 19.478 4.23718C19.1321 3.40519 18.6247 2.65007 17.9851 2.0155H17.9861ZM10.0001 15.2945C8.95328 15.2943 7.93007 14.9837 7.0598 14.402C6.18952 13.8204 5.51126 12.9937 5.11077 12.0266C4.71028 11.0594 4.60554 9.99529 4.80981 8.96864C5.01407 7.94199 5.51816 6.99896 6.25834 6.25878C6.99852 5.5186 7.94155 5.01451 8.96819 4.81025C9.99484 4.60598 11.059 4.71072 12.0261 5.11121C12.9933 5.5117 13.8199 6.18996 14.4016 7.06024C14.9833 7.93051 15.2939 8.95372 15.2941 10.0005C15.2925 11.4041 14.7342 12.7497 13.7417 13.7422C12.7492 14.7346 11.4036 15.2929 10.0001 15.2945ZM15.8651 4.9655C15.7691 5.06128 15.6429 5.12083 15.508 5.134C15.373 5.14716 15.2377 5.11313 15.125 5.03769C15.0124 4.96225 14.9293 4.85009 14.8901 4.7203C14.8509 4.59052 14.8579 4.45115 14.9099 4.32594C14.9619 4.20073 15.0557 4.09743 15.1754 4.03365C15.295 3.96987 15.4331 3.94955 15.566 3.97616C15.699 4.00276 15.8186 4.07464 15.9045 4.17955C15.9904 4.28446 16.0372 4.41591 16.0371 4.5515C16.0364 4.70675 15.9746 4.8555 15.8651 4.9655Z" fill="#545569"/>
</svg>
