<svg width="33" height="32" viewBox="0 0 33 32" fill="none" xmlns="http://www.w3.org/2000/svg">
<path opacity="0.4" d="M29.6665 15.9998C29.6665 23.3638 23.6972 29.3332 16.3332 29.3332C8.96915 29.3332 2.99982 23.3638 2.99982 15.9998C2.99982 8.63717 8.96915 2.6665 16.3332 2.6665C23.6972 2.6665 29.6665 8.63717 29.6665 15.9998Z" fill="#4791EC"/>
<path d="M21.4797 11.6066L19.3197 18.4332C19.2397 18.7132 19.013 18.9399 18.733 19.0212L11.933 21.1532C11.4797 21.3012 11.0397 20.8599 11.1863 20.4066L13.3197 13.5666C13.3997 13.2866 13.6263 13.0732 13.9063 12.9799L20.733 10.8466C21.1997 10.6999 21.6263 11.1399 21.4797 11.6066Z" fill="#4791EC"/>
</svg>
