<svg width="21" height="20" viewBox="0 0 21 20" fill="none" xmlns="http://www.w3.org/2000/svg">
<path d="M12.2628 9.66L9.90178 7.98001C9.75445 7.87248 9.57717 7.81374 9.39478 7.81201C9.24664 7.81361 9.10154 7.85407 8.97395 7.92935C8.84637 8.00464 8.74078 8.11211 8.66777 8.24101L6.71178 11.541L9.06677 9.94101C9.16567 9.87377 9.28279 9.83839 9.40237 9.83965C9.52196 9.8409 9.63831 9.87872 9.73578 9.94801L12.0968 11.628C12.2444 11.7357 12.4221 11.7944 12.6048 11.796C12.7529 11.7945 12.8981 11.7541 13.0257 11.6788C13.1533 11.6035 13.2588 11.496 13.3318 11.367L15.2878 8.067L12.9318 9.66701C12.8329 9.73425 12.7158 9.76962 12.5962 9.76837C12.4766 9.76712 12.3602 9.7293 12.2628 9.66Z" fill="#545569"/>
<path d="M18.0638 2.93623C16.1694 1.10474 13.6337 0.0868901 10.9988 0.100227C8.36385 0.0869965 5.82824 1.10483 3.93378 2.93623C2.98879 3.83979 2.24031 4.92855 1.73511 6.13445C1.22992 7.34036 0.978861 8.6375 0.997631 9.94482C1.0164 11.2521 1.30459 12.5415 1.8442 13.7324C2.38381 14.9233 3.16324 15.9902 4.13378 16.8662V18.2352C4.1201 18.6656 4.26655 19.0857 4.54478 19.4142C4.68426 19.5699 4.85553 19.6939 5.04702 19.7777C5.23851 19.8616 5.44576 19.9033 5.65478 19.9002C5.90891 19.8977 6.16005 19.845 6.39378 19.7452L8.01478 19.0732C8.98241 19.3656 9.98793 19.5136 10.9988 19.5122C13.6337 19.5256 16.1694 18.5077 18.0638 16.6762C18.9919 15.7888 19.7306 14.7226 20.2352 13.5418C20.7399 12.3611 21.0001 11.0903 21.0001 9.80623C21.0001 8.52215 20.7399 7.25139 20.2352 6.07063C19.7306 4.88988 18.9919 3.82363 18.0638 2.93623ZM16.8328 7.75623L14.3388 11.9682C14.1624 12.2722 13.9094 12.5246 13.6049 12.7001C13.3004 12.8756 12.9552 12.968 12.6038 12.9682C12.1776 12.9671 11.7625 12.8325 11.4168 12.5832L9.38778 11.1442L6.49878 13.1082C6.2392 13.3158 5.92392 13.4418 5.59278 13.4702C5.46471 13.4728 5.33829 13.441 5.22664 13.3782C5.11498 13.3155 5.02215 13.224 4.95778 13.1132C4.87991 12.9037 4.85823 12.6774 4.89489 12.4569C4.93156 12.2364 5.02529 12.0293 5.16678 11.8562L7.65878 7.64523C7.83511 7.34123 8.08817 7.08887 8.39264 6.91337C8.69712 6.73788 9.04235 6.64542 9.39378 6.64523C9.81995 6.64642 10.235 6.78106 10.5808 7.03023L12.6098 8.47323L15.4988 6.50023C15.7583 6.29259 16.0736 6.16661 16.4048 6.13823C16.5328 6.13568 16.6593 6.16744 16.7709 6.23022C16.8826 6.29299 16.9754 6.38449 17.0398 6.49523C17.1177 6.70475 17.1395 6.93105 17.1028 7.15158C17.0661 7.37212 16.9724 7.5792 16.8308 7.75223L16.8328 7.75623Z" fill="#545569"/>
</svg>
