<svg width="21" height="20" viewBox="0 0 21 20" fill="none" xmlns="http://www.w3.org/2000/svg">
<path d="M17.0742 2.92862C15.1988 1.05314 12.6551 -0.000488281 10.0027 -0.000488281C7.35041 -0.000488281 4.80671 1.05314 2.93123 2.92862C1.05575 4.8041 0.00212097 7.3478 0.00212097 10.0001C0.00212097 12.6525 1.05575 15.1961 2.93123 17.0716C4.80671 18.9471 7.35041 20.0007 10.0027 20.0007C12.6551 20.0007 15.1988 18.9471 17.0742 17.0716C18.9497 15.1961 20.0033 12.6525 20.0033 10.0001C20.0033 7.3478 18.9497 4.8041 17.0742 2.92862ZM14.6232 14.1216C14.5593 14.2632 14.4417 14.3736 14.2964 14.4286C14.1511 14.4835 13.9899 14.4785 13.8482 14.4146C12.0575 13.6043 10.1138 13.1876 8.14823 13.1926C7.0945 13.1921 6.04411 13.3112 5.01723 13.5476C4.86579 13.5826 4.70665 13.556 4.57481 13.4737C4.44297 13.3914 4.34924 13.2601 4.31423 13.1086C4.27922 12.9572 4.30581 12.798 4.38814 12.6662C4.47046 12.5344 4.60179 12.4406 4.75323 12.4056C5.8667 12.1493 7.00565 12.0202 8.14823 12.0206C10.2794 12.0161 12.3868 12.4686 14.3282 13.3476C14.4698 13.4116 14.5802 13.5291 14.6352 13.6745C14.6901 13.8198 14.6851 13.981 14.6212 14.1226L14.6232 14.1216ZM15.8602 11.3216C15.8287 11.3918 15.7836 11.4551 15.7275 11.5079C15.6715 11.5607 15.6056 11.6019 15.5336 11.6292C15.4617 11.6565 15.385 11.6693 15.3081 11.667C15.2311 11.6647 15.1554 11.6472 15.0852 11.6156C12.9055 10.6333 10.5411 10.128 8.15023 10.1336C6.91735 10.1337 5.68813 10.2679 4.48423 10.5336C4.33416 10.5629 4.17857 10.5324 4.05068 10.4486C3.92279 10.3648 3.83272 10.2343 3.7997 10.085C3.76668 9.93573 3.79333 9.77944 3.87395 9.64951C3.95458 9.51959 4.08279 9.42632 4.23123 9.38962C5.51829 9.10615 6.83233 8.96331 8.15023 8.96362C10.707 8.95798 13.2354 9.49872 15.5662 10.5496C15.6364 10.5812 15.6997 10.6263 15.7525 10.6823C15.8053 10.7384 15.8465 10.8042 15.8738 10.8762C15.9011 10.9482 15.9139 11.0248 15.9116 11.1018C15.9093 11.1787 15.8918 11.2544 15.8602 11.3246V11.3216ZM17.0602 8.60462C17.0288 8.67491 16.9837 8.73831 16.9277 8.79118C16.8717 8.84406 16.8059 8.88538 16.7339 8.91277C16.6619 8.94017 16.5852 8.95311 16.5082 8.95086C16.4313 8.9486 16.3555 8.93119 16.2852 8.89962C13.7281 7.74801 10.9547 7.15483 8.15023 7.15962C6.74466 7.15916 5.34293 7.30664 3.96823 7.59962C3.89256 7.61686 3.81422 7.61889 3.73775 7.60559C3.66129 7.5923 3.58823 7.56396 3.52281 7.5222C3.45739 7.48044 3.40092 7.4261 3.35667 7.36234C3.31242 7.29857 3.28129 7.22666 3.26506 7.15076C3.24883 7.07487 3.24785 6.9965 3.26215 6.92022C3.27646 6.84394 3.30578 6.77127 3.3484 6.70641C3.39103 6.64155 3.44611 6.58581 3.51046 6.54241C3.5748 6.49902 3.64713 6.46884 3.72323 6.45362C5.17846 6.14336 6.6623 5.98717 8.15023 5.98762C11.1191 5.98104 14.0554 6.60729 16.7632 7.82462C16.8335 7.8561 16.8969 7.90113 16.9498 7.95713C17.0027 8.01312 17.044 8.07899 17.0714 8.15097C17.0988 8.22295 17.1117 8.29962 17.1095 8.37661C17.1072 8.45359 17.0898 8.52937 17.0582 8.59962L17.0602 8.60462Z" fill="#545569"/>
</svg>
