<svg width="21" height="20" viewBox="0 0 21 20" fill="none" xmlns="http://www.w3.org/2000/svg">
<path d="M13.0101 10.9053C13.9876 13.3763 14.7188 15.9377 15.1931 18.5523C15.8763 18.1354 16.5074 17.6386 17.0731 17.0723C18.5463 15.6068 19.5225 13.716 19.8641 11.6663C17.6966 10.7729 15.3209 10.5091 13.0101 10.9053Z" fill="#545569"/>
<path d="M17.0811 2.93813L17.0731 2.92913C15.7752 1.63361 14.1467 0.718932 12.365 0.284658C10.5833 -0.149615 8.7166 -0.086848 6.96809 0.466128C8.51754 2.40688 9.88529 4.48596 11.0541 6.67713C13.2428 5.74688 15.2755 4.48583 17.0811 2.93813Z" fill="#545569"/>
<path d="M17.8671 3.82329C15.9885 5.43632 13.8736 6.75162 11.5961 7.72329C11.9334 8.40196 12.2521 9.09162 12.5521 9.79229C13.3976 9.63156 14.2564 9.55087 15.1171 9.55128C16.7833 9.54902 18.4356 9.85413 19.9911 10.4513C19.9981 10.3013 20.0021 10.1513 20.0021 9.99929C20.0084 7.75796 19.2559 5.58048 17.8671 3.82129V3.82329Z" fill="#545569"/>
<path d="M3.8451 17.8841C5.2805 19.0024 6.99318 19.709 8.79957 19.9282C10.606 20.1473 12.4379 19.8707 14.0991 19.1281C13.6288 16.4013 12.872 13.7319 11.8411 11.1641C10.1021 11.6415 8.48692 12.4892 7.10611 13.6491C5.7253 14.809 4.61153 16.2536 3.84109 17.8841H3.8451Z" fill="#545569"/>
<path d="M9.8121 10.6264C10.3239 10.4097 10.8486 10.2247 11.3831 10.0724C11.1018 9.42902 10.8041 8.7957 10.4901 8.17236C7.78226 9.17548 4.91675 9.68586 2.0291 9.67937C1.3511 9.67937 0.677764 9.65169 0.0090972 9.59636C0.0040972 9.73036 9.71966e-05 9.86537 9.71966e-05 9.99637C-0.00344722 11.3101 0.2536 12.6115 0.756362 13.8252C1.25912 15.039 1.99762 16.1409 2.9291 17.0674C4.38552 14.1698 6.82431 11.8841 9.8101 10.6184L9.8121 10.6264Z" fill="#545569"/>
<path d="M9.9421 7.11504C8.75909 4.92341 7.37302 2.84764 5.8021 0.915039C4.31335 1.60672 3.01706 2.65313 2.02693 3.96249C1.0368 5.27186 0.383074 6.80417 0.123097 8.42504C0.751764 8.47637 1.3871 8.50237 2.0291 8.50304C4.7279 8.50566 7.40621 8.03451 9.9421 7.11104V7.11504Z" fill="#545569"/>
</svg>
