<svg width="32" height="32" viewBox="0 0 32 32" fill="none" xmlns="http://www.w3.org/2000/svg">
<path opacity="0.4" d="M26.0417 13.1006C25.3287 13.1006 24.7501 13.6707 24.7501 14.3761C24.7501 19.1402 20.8249 23.0166 16.0007 23.0166C11.1752 23.0166 7.24991 19.1402 7.24991 14.3761C7.24991 13.6707 6.67127 13.1006 5.95829 13.1006C5.24532 13.1006 4.66667 13.6707 4.66667 14.3761C4.66667 20.116 9.06594 24.8546 14.709 25.4911V28.0575C14.709 28.7616 15.2864 29.333 16.0007 29.333C16.7136 29.333 17.2923 28.7616 17.2923 28.0575V25.4911C22.9341 24.8546 27.3333 20.116 27.3333 14.3761C27.3333 13.6707 26.7547 13.1006 26.0417 13.1006Z" fill="#4791EC"/>
<path d="M15.7661 20.2893H16.2337C19.4369 20.2893 22.0356 17.7242 22.0356 14.5608V8.3962C22.0356 5.23032 19.4369 2.6665 16.2337 2.6665H15.7661C12.5629 2.6665 9.96413 5.23032 9.96413 8.3962V14.5608C9.96413 17.7242 12.5629 20.2893 15.7661 20.2893Z" fill="#4791EC"/>
</svg>
