<svg width="33" height="32" viewBox="0 0 33 32" fill="none" xmlns="http://www.w3.org/2000/svg">
<path opacity="0.4" d="M30 16.0063C30 23.3515 24.0154 29.3332 16.6666 29.3332C9.31787 29.3332 3.33331 23.3515 3.33331 16.0063C3.33331 8.64817 9.31787 2.6665 16.6666 2.6665C24.0154 2.6665 30 8.64817 30 16.0063Z" fill="#4791EC"/>
<path d="M22 16.0063C22 16.3433 21.8939 16.6816 21.6818 16.9524C21.642 17.0056 21.4564 17.2246 21.3106 17.3672L21.231 17.445C20.1174 18.6257 17.3466 20.4013 15.9412 20.9703C15.9412 20.9832 15.106 21.3215 14.7083 21.3332H14.6553C14.0454 21.3332 13.4753 20.9975 13.1837 20.4531C13.0246 20.1537 12.8787 19.2854 12.8655 19.2737C12.7462 18.4948 12.6666 17.3024 12.6666 15.9934C12.6666 14.6208 12.7462 13.3753 12.892 12.6106C12.892 12.5977 13.0378 11.8978 13.1306 11.6645C13.2765 11.3288 13.5416 11.0424 13.8731 10.8609C14.1382 10.7326 14.4166 10.6665 14.7083 10.6665C15.0132 10.6808 15.5833 10.8739 15.8087 10.9646C17.2935 11.5349 20.1306 13.4012 21.2178 14.5418C21.4034 14.7232 21.6022 14.9448 21.6553 14.9954C21.8806 15.2805 22 15.6305 22 16.0063Z" fill="#4791EC"/>
</svg>
