<svg width="27" height="28" viewBox="0 0 27 28" fill="none" xmlns="http://www.w3.org/2000/svg">
<path opacity="0.4" d="M26.8333 14.0067C26.8333 21.3519 20.8488 27.3336 13.5 27.3336C6.15121 27.3336 0.166656 21.3519 0.166656 14.0067C0.166656 6.64858 6.15121 0.66691 13.5 0.66691C20.8488 0.66691 26.8333 6.64858 26.8333 14.0067Z" fill="#F2F3F6"/>
<path d="M18.8333 14.0067C18.8333 14.3437 18.7273 14.682 18.5152 14.9529C18.4754 15.006 18.2898 15.225 18.1439 15.3676L18.0644 15.4454C16.9508 16.6261 14.1799 18.4017 12.7746 18.9707C12.7746 18.9836 11.9394 19.3219 11.5417 19.3336H11.4886C10.8788 19.3336 10.3087 18.9979 10.017 18.4535C9.85795 18.1542 9.71212 17.2858 9.69886 17.2741C9.57955 16.4952 9.5 15.3028 9.5 13.9938C9.5 12.6212 9.57955 11.3757 9.72538 10.611C9.72538 10.5981 9.87121 9.89818 9.96402 9.66489C10.1098 9.3292 10.375 9.04277 10.7064 8.86132C10.9716 8.73301 11.25 8.66691 11.5417 8.66691C11.8466 8.68117 12.4167 8.87428 12.642 8.96501C14.1269 9.53528 16.964 11.4016 18.0511 12.5422C18.2367 12.7236 18.4356 12.9452 18.4886 12.9958C18.714 13.2809 18.8333 13.6309 18.8333 14.0067Z" fill="#F2F3F6"/>
</svg>
