<svg width="126" height="106" viewBox="0 0 126 106" fill="none" xmlns="http://www.w3.org/2000/svg">
<path d="M61.1499 65.8827C60.6439 66.9261 60.6841 68.1537 61.2543 69.1641L69.3567 83.0473C70.0424 84.2244 69.9754 85.6929 69.1865 86.8052C68.4286 87.9369 67.0872 88.5285 65.7403 88.335L49.8181 86.2335C49.2626 86.1553 48.6976 86.2107 48.1635 86.3883L47.3449 86.6866C47.0763 86.8324 46.8315 87.0243 46.6284 87.2558L35.8019 99.1444C35.2615 99.7178 34.5553 100.109 33.7783 100.258C31.8667 100.572 30.0526 99.3031 29.6905 97.3989L26.962 81.557C26.7449 80.4076 25.9836 79.436 24.9205 78.9509L10.159 72.3541C8.92418 71.8015 8.12256 70.588 8.10232 69.2368C8.0711 67.8931 8.786 66.6435 9.962 65.9925L24.1812 58.3425C25.2801 57.8085 26.0298 56.7482 26.169 55.534L27.8409 39.5596C27.8878 39.2003 27.9889 38.8486 28.1477 38.5238L28.3425 38.2133C28.4272 38.0045 28.543 37.8151 28.6857 37.6433L28.9709 37.4025L29.4074 37.0039L30.6791 36.5404C31.8579 36.2442 33.1055 36.5594 33.998 37.3839L45.6225 48.4435C46.4659 49.2551 47.6553 49.5984 48.8003 49.3693L64.6072 46.0752C65.9419 45.794 67.3215 46.2836 68.1818 47.3388C69.019 48.4059 69.1621 49.8594 68.5499 51.0715L61.1499 65.8827Z" fill="url(#paint0_linear_1206_6315)"/>
<g opacity="0.5" filter="url(#filter0_f_1206_6315)">
<path d="M47.2276 57.849C40.3143 57.849 34.7035 63.461 34.7035 70.3731C34.7035 77.2876 40.3143 82.8971 47.2276 82.8971C54.1534 82.8971 59.7517 77.2876 59.7517 70.3731C59.7517 63.461 54.1534 57.849 47.2276 57.849Z" fill="#FA6767"/>
</g>
<g filter="url(#filter1_b_1206_6315)">
<path d="M98.016 63.5491C96.7405 64.2854 95.908 65.6045 95.7874 67.0731L94.4121 87.442C94.2942 89.1681 93.1772 90.6642 91.5553 91.2713C89.9521 91.921 88.1204 91.587 86.8422 90.4238L71.6011 76.8683C71.0728 76.3903 70.4394 76.0459 69.7514 75.852L68.6781 75.5823C68.292 75.5442 67.8978 75.5715 67.5193 75.6701L47.6659 80.4534C46.6891 80.6711 45.6682 80.5787 44.7447 80.1825C42.5117 79.1498 41.5086 76.5232 42.4849 74.2634L50.9054 55.6647C51.4963 54.3017 51.3883 52.7378 50.6163 51.4702L39.7989 34.0161C38.8944 32.5552 38.9165 30.7082 39.858 29.2734C40.7828 27.8385 42.4248 27.0343 44.125 27.1879L64.5248 29.2783C66.0606 29.5 67.6042 28.9195 68.6158 27.7422L81.7568 12.1401C82.0622 11.7958 82.4191 11.4981 82.8175 11.2699L83.2436 11.0822C83.4814 10.923 83.7381 10.8065 84.0105 10.7276L84.482 10.6776L85.2249 10.5696L86.8921 10.9885C88.3424 11.5171 89.4293 12.7376 89.7801 14.2404L94.1196 34.1507C94.4279 35.6049 95.4336 36.8134 96.8006 37.3884L115.765 45.1895C117.369 45.845 118.47 47.3428 118.623 49.0652C118.743 50.7836 117.857 52.4137 116.35 53.2517L98.016 63.5491Z" fill="#FA6767" fill-opacity="0.35"/>
<path d="M94.911 87.4761L94.911 87.4757L96.2858 67.114C96.2859 67.1128 96.286 67.1115 96.2861 67.1103C96.3943 65.8069 97.1333 64.637 98.2637 63.9835C98.2645 63.983 98.2652 63.9826 98.266 63.9822L116.593 53.6887C116.593 53.6884 116.594 53.6881 116.595 53.6878C118.27 52.7554 119.255 50.9422 119.122 49.0304L119.122 49.0304L119.121 49.0211C118.952 47.113 117.732 45.4536 115.955 44.7269C115.955 44.7269 115.955 44.7268 115.955 44.7267L96.9945 36.9276C96.9939 36.9273 96.9934 36.9271 96.9928 36.9269C95.7766 36.4146 94.8827 35.3393 94.6088 34.047L94.6082 34.0442L90.2686 14.1339L90.2687 14.1339L90.267 14.1267C89.8776 12.4586 88.6713 11.1049 87.0634 10.5188C87.0472 10.5129 87.0307 10.5078 87.014 10.5036L85.3467 10.0847C85.2834 10.0688 85.2176 10.0654 85.1529 10.0748L84.4196 10.1814L83.9579 10.2304C83.9286 10.2335 83.8997 10.2391 83.8714 10.2473C83.5668 10.3355 83.2758 10.465 83.0037 10.6415L82.616 10.8123C82.5999 10.8194 82.5842 10.8273 82.5689 10.836C82.1198 11.0934 81.7213 11.4267 81.3827 11.8083L81.3826 11.8081L81.3743 11.818L68.2366 27.4163C68.2361 27.4169 68.2355 27.4176 68.235 27.4182C67.3346 28.4648 65.9616 28.9805 64.5962 28.7834C64.5941 28.7831 64.592 28.7828 64.5899 28.7825C64.5852 28.7819 64.5805 28.7813 64.5758 28.7809L44.176 26.6905L44.176 26.6904L44.17 26.6899C42.2846 26.5196 40.4643 27.4111 39.4389 29.0008C38.3914 30.5986 38.3677 32.6543 39.3737 34.2793L39.3739 34.2795L50.1893 51.7303C50.1896 51.7309 50.19 51.7314 50.1903 51.732C50.8761 52.8594 50.9725 54.2497 50.4482 55.4623C50.4477 55.4635 50.4472 55.4647 50.4467 55.4659L42.0294 74.0571L42.0293 74.0571L42.0258 74.0651C40.9421 76.5737 42.0555 79.4897 44.5348 80.6363L44.5347 80.6365L44.5475 80.642C45.5682 81.0799 46.6962 81.1817 47.7746 80.9414L47.7747 80.9415L47.783 80.9395L67.6364 76.1561L67.6365 76.1562L67.6454 76.1539C67.9525 76.0739 68.2747 76.0491 68.5936 76.0766L69.6225 76.3352C70.2362 76.5092 70.7982 76.8161 71.2656 77.2391L71.2688 77.2419L86.5057 90.7936C86.5063 90.7942 86.507 90.7948 86.5077 90.7954C87.9251 92.084 89.9561 92.456 91.7366 91.7373C93.5384 91.0602 94.7798 89.3962 94.911 87.4761Z" stroke="url(#paint1_linear_1206_6315)" stroke-linecap="round" stroke-linejoin="round"/>
</g>
<defs>
<filter id="filter0_f_1206_6315" x="14.7035" y="37.849" width="65.0481" height="65.0481" filterUnits="userSpaceOnUse" color-interpolation-filters="sRGB">
<feFlood flood-opacity="0" result="BackgroundImageFix"/>
<feBlend mode="normal" in="SourceGraphic" in2="BackgroundImageFix" result="shape"/>
<feGaussianBlur stdDeviation="10" result="effect1_foregroundBlur_1206_6315"/>
</filter>
<filter id="filter1_b_1206_6315" x="14.1359" y="-14.4304" width="129.498" height="131.029" filterUnits="userSpaceOnUse" color-interpolation-filters="sRGB">
<feFlood flood-opacity="0" result="BackgroundImageFix"/>
<feGaussianBlur in="BackgroundImage" stdDeviation="12"/>
<feComposite in2="SourceAlpha" operator="in" result="effect1_backgroundBlur_1206_6315"/>
<feBlend mode="normal" in="SourceGraphic" in2="effect1_backgroundBlur_1206_6315" result="shape"/>
</filter>
<linearGradient id="paint0_linear_1206_6315" x1="30.2606" y1="36.6929" x2="51.1812" y2="94.0908" gradientUnits="userSpaceOnUse">
<stop stop-color="#CB3131"/>
<stop offset="1" stop-color="#E56F6F"/>
</linearGradient>
<linearGradient id="paint1_linear_1206_6315" x1="116.92" y1="32.9804" x2="27.9315" y2="13.8389" gradientUnits="userSpaceOnUse">
<stop stop-color="white"/>
<stop offset="1" stop-color="white" stop-opacity="0.2"/>
</linearGradient>
</defs>
</svg>
