<svg width="16" height="16" viewBox="0 0 16 16" fill="none" xmlns="http://www.w3.org/2000/svg">
<path d="M8 4.36333C5.99273 4.36333 4.36364 5.99242 4.36364 7.99969C4.36364 10.007 5.99273 11.6361 8 11.6361C10.0073 11.6361 11.6364 10.007 11.6364 7.99969C11.6364 5.99242 10.0073 4.36333 8 4.36333ZM0.727273 8.72697H2.18182C2.58182 8.72697 2.90909 8.3997 2.90909 7.99969C2.90909 7.5997 2.58182 7.27242 2.18182 7.27242H0.727273C0.327273 7.27242 0 7.5997 0 7.99969C0 8.3997 0.327273 8.72697 0.727273 8.72697ZM13.8182 8.72697H15.2727C15.6727 8.72697 16 8.3997 16 7.99969C16 7.5997 15.6727 7.27242 15.2727 7.27242H13.8182C13.4182 7.27242 13.0909 7.5997 13.0909 7.99969C13.0909 8.3997 13.4182 8.72697 13.8182 8.72697ZM7.27273 0.726968V2.18151C7.27273 2.58151 7.6 2.90879 8 2.90879C8.4 2.90879 8.72727 2.58151 8.72727 2.18151V0.726968C8.72727 0.326968 8.4 -0.000305176 8 -0.000305176C7.6 -0.000305176 7.27273 0.326968 7.27273 0.726968ZM7.27273 13.8179V15.2724C7.27273 15.6724 7.6 15.9997 8 15.9997C8.4 15.9997 8.72727 15.6724 8.72727 15.2724V13.8179C8.72727 13.4179 8.4 13.0906 8 13.0906C7.6 13.0906 7.27273 13.4179 7.27273 13.8179ZM3.62909 2.60333C3.34545 2.31969 2.88 2.31969 2.60364 2.60333C2.32 2.88697 2.32 3.35242 2.60364 3.62879L3.37455 4.39969C3.65818 4.68333 4.12364 4.68333 4.4 4.39969C4.67636 4.11606 4.68364 3.6506 4.4 3.37424L3.62909 2.60333ZM12.6255 11.5997C12.3418 11.3161 11.8764 11.3161 11.6 11.5997C11.3164 11.8833 11.3164 12.3488 11.6 12.6251L12.3709 13.3961C12.6545 13.6797 13.12 13.6797 13.3964 13.3961C13.68 13.1124 13.68 12.647 13.3964 12.3706L12.6255 11.5997ZM13.3964 3.62879C13.68 3.34515 13.68 2.87969 13.3964 2.60333C13.1127 2.31969 12.6473 2.31969 12.3709 2.60333L11.6 3.37424C11.3164 3.65788 11.3164 4.12333 11.6 4.39969C11.8836 4.67606 12.3491 4.68333 12.6255 4.39969L13.3964 3.62879ZM4.4 12.6251C4.68364 12.3415 4.68364 11.8761 4.4 11.5997C4.11636 11.3161 3.65091 11.3161 3.37455 11.5997L2.60364 12.3706C2.32 12.6542 2.32 13.1197 2.60364 13.3961C2.88727 13.6724 3.35273 13.6797 3.62909 13.3961L4.4 12.6251Z" fill="#E4E7EC"/>
</svg>
